<svg xmlns="http://www.w3.org/2000/svg" width="100" height="136"><g fill="#000000"><rect width="20" height="34"/><rect width="20" height="34" fill="#d69766" x="20"/><rect width="20" height="34" fill="#f4ac75" x="40"/><rect width="20" height="34" fill="#fdca65" x="60"/><rect width="20" height="34" fill="#fdca65" x="80"/><rect width="20" height="34" y="34"/><rect width="20" height="34" x="20" y="34"/><rect width="20" height="34" x="40" y="34"/><rect width="20" height="34" fill="#fdd9c5" x="60" y="34"/><rect width="20" height="34" fill="#fdd9c5" x="80" y="34"/><rect width="20" height="34" y="68"/><rect width="20" height="34" x="20" y="68"/><rect width="20" height="34" fill="#f4c3af" x="40" y="68"/><rect width="20" height="34" fill="#fdd9c5" x="60" y="68"/><rect width="20" height="34" x="80" y="68"/><rect width="20" height="34" y="102"/><rect width="20" height="34" x="20" y="102"/><rect width="20" height="34" x="40" y="102"/><rect width="20" height="34" fill="#fdd9c5" x="60" y="102"/><rect width="20" height="34" fill="#fdd9c5" x="80" y="102"/></g></svg>